<svg width="47" height="31" xmlns="http://www.w3.org/2000/svg"><path d="M18.798 0v4.697H9.4v4.697H4.7v4.697H1.058a.916.916 0 0 0-.91.763c-.007.033-.147.818-.147 1.82 0 .657.062 1.373.176 2.085 1.076-.257 3.048-.643 2.702-1.909 1.855 2.147 6.305 1.498 7.432.44 1.259 1.824 8.595 1.127 9.105-.293 1.579 1.85 6.473 1.85 8.048 0 .51 1.42 7.817 2.117 9.076.294.4.374 1.234.686 2.203.851.327-.62.628-1.244.91-1.908 5.97-.073 7.26-4.363 7.314-4.55.103-.36-.036-.73-.323-.969-.099-.084-2.302-1.871-5.874-1.262-1.003-3.263-3.584-4.749-3.701-4.815a.932.932 0 0 0-1.058.088c-.095.077-2.316 1.96-1.967 5.813.088.969.341 1.824.734 2.583-.771.43-2.097.969-4.23.969h-.47V9.394h-4.7V0h-6.579Zm19.944 18.142c-.114.22-.26.433-.382.646h8.489c-1.02-.257-3.213-.602-2.85-1.938-1.2 1.387-3.48 1.593-5.257 1.292Zm-.382.646H.176c.228 1.38.698 2.825 1.41 4.227 5.104 1.2 10.46-.627 10.515-.646.492-.172 1.006.1 1.175.587.173.488-.07 1.035-.558 1.204-.18.062-3.407 1.145-7.372 1.145-.786 0-1.612-.044-2.438-.147C5.375 28.428 9.557 31 15.978 31c10.156 0 17.965-4.312 22.382-12.212Zm-38.184 0c-.003-.015.004-.015 0-.03-.062.015-.12.015-.176.03h.176Zm20.502-16.91h2.82v2.819h-2.82V1.879ZM11.28 6.577h2.82v2.818h-2.82V6.576Zm4.7 0h2.82v2.818h-2.82V6.576Zm4.7 0h2.819v2.818h-2.82V6.576Zm-14.1 4.697H9.4v2.818H6.58v-2.818Zm4.7 0h2.82v2.818h-2.82v-2.818Zm4.7 0h2.82v2.818h-2.82v-2.818Zm4.7 0h2.819v2.818h-2.82v-2.818Zm4.699 0h2.82v2.818h-2.82v-2.818Zm-10.34 9.394c.122 0 .247.018.353.058-.114.066-.206.18-.206.323 0 .213.17.411.382.411a.422.422 0 0 0 .353-.205c.048.11.059.224.059.352 0 .517-.423.94-.94.94a.941.941 0 0 1-.94-.94c0-.517.422-.94.94-.94Z" fill="#FFF" fill-rule="nonzero"/></svg>