<svg width="48" height="43" xmlns="http://www.w3.org/2000/svg"><path d="M13.85 0c-1.296.003-2.565.744-3.218 1.874L.482 19.626a3.885 3.885 0 0 0 0 3.748l10.15 17.752c.653 1.13 1.922 1.871 3.218 1.874h20.3c1.296-.003 2.565-.744 3.218-1.874l10.15-17.752a3.885 3.885 0 0 0 0-3.748L37.368 1.874C36.715.744 35.446.003 34.15 0h-20.3Zm.184 10.385a.437.437 0 0 1 .085 0h3.502a.461.461 0 0 1 .382.23l5.94 10.656c.03.053.05.112.057.172a.461.461 0 0 1 .056-.172l5.926-10.657c.08-.14.237-.23.397-.229h3.501c.31.003.542.396.397.673L28.48 21.5l5.798 10.428c.16.278-.079.69-.397.687H30.38a.463.463 0 0 1-.397-.243l-5.926-10.657a.461.461 0 0 1-.056-.172.461.461 0 0 1-.057.172l-5.94 10.657a.463.463 0 0 1-.382.243h-3.502c-.318.003-.556-.409-.397-.687L19.52 21.5l-5.798-10.442c-.139-.253.031-.619.312-.673Z" fill="#FFF" fill-rule="nonzero"/></svg>