<svg width="43" height="47" xmlns="http://www.w3.org/2000/svg"><g fill="#FFF" fill-rule="nonzero"><path d="M19.56.501c1.175-.667 2.705-.67 3.88 0 5.905 3.31 11.813 6.615 17.718 9.927 1.11.62 1.853 1.847 1.842 3.116v19.914c.008 1.322-.808 2.578-1.98 3.184-5.886 3.292-11.77 6.588-17.655 9.88-1.2.68-2.76.627-3.922-.109-1.765-1.014-3.533-2.024-5.298-3.038-.36-.213-.767-.383-1.022-.73.225-.3.628-.338.955-.47.737-.232 1.413-.605 2.09-.967.171-.116.38-.071.544.032 1.51.859 3.005 1.742 4.519 2.592.323.185.65-.06.926-.213 5.777-3.239 11.56-6.465 17.336-9.704a.568.568 0 0 0 .315-.56c.004-6.569 0-13.14.002-19.709a.615.615 0 0 0-.37-.614c-5.866-3.277-11.73-6.559-17.595-9.836a.615.615 0 0 0-.69-.001c-5.866 3.278-11.728 6.563-17.593 9.84a.608.608 0 0 0-.372.611v19.71a.556.556 0 0 0 .32.553c1.565.88 3.132 1.755 4.698 2.632.882.471 1.965.75 2.937.39.858-.305 1.46-1.173 1.443-2.077.008-6.53-.004-13.063.006-19.593-.021-.29.256-.53.54-.502.752-.005 1.505-.01 2.257.002.314-.007.53.305.492.597-.004 6.573.008 13.145-.006 19.717.002 1.752-.723 3.658-2.356 4.515-2.013 1.034-4.5.815-6.488-.177-1.721-.852-3.364-1.857-5.054-2.77C.804 36.04-.008 34.779 0 33.459V13.544C-.012 12.25.76 11 1.905 10.39 7.791 7.094 13.675 3.797 19.56.5Z"/><path d="M25.009 14.065c2.529-.164 5.236-.097 7.512 1.152 1.762.957 2.739 2.966 2.77 4.929-.05.264-.325.41-.577.392-.734 0-1.468.01-2.202-.005-.311.012-.492-.275-.531-.551-.21-.94-.722-1.87-1.603-2.322-1.354-.68-2.923-.645-4.399-.631-1.077.057-2.235.15-3.148.786-.7.48-.914 1.452-.664 2.234.236.562.883.743 1.412.91 3.048.8 6.278.72 9.267 1.771 1.238.43 2.45 1.263 2.873 2.562.554 1.741.311 3.823-.925 5.22-1.002 1.15-2.462 1.777-3.917 2.117-1.937.433-3.947.444-5.914.252-1.849-.212-3.773-.699-5.201-1.962-1.22-1.063-1.817-2.718-1.758-4.317.014-.27.282-.458.54-.435a109.19 109.19 0 0 1 2.217 0c.295-.02.514.235.529.514.136.895.472 1.834 1.25 2.364 1.502.971 3.386.905 5.106.932 1.425-.063 3.024-.082 4.186-1.026.614-.539.796-1.44.63-2.215-.18-.654-.862-.959-1.449-1.158-3.009-.954-6.275-.608-9.254-1.687-1.21-.429-2.38-1.24-2.844-2.485-.649-1.763-.352-3.945 1.014-5.295 1.33-1.344 3.252-1.861 5.08-2.047Z"/></g></svg>