<svg width="49" height="28" xmlns="http://www.w3.org/2000/svg"><path d="M49 27.274c-1.782.446-2.885.02-3.874-1.443l-7.035-9.586-1.016-1.328-8.216 10.946c-.938 1.316-1.923 1.89-3.675 1.423l10.52-13.908L25.91.814c1.685-.322 2.848-.158 3.882 1.328l7.296 9.705 7.35-9.653C45.38.878 46.392.377 48.083.862l-3.798 4.96-5.145 6.598c-.612.754-.528 1.27.036 1.998L49 27.274ZM.012 13.145l.86-4.168C3.217.727 12.818-2.702 19.439 2.396c3.87 2.998 4.831 7.24 4.64 11.99H2.266c-.327 8.552 5.922 13.712 13.889 11.08 2.794-.925 4.44-3.08 5.264-5.777.418-1.351 1.11-1.562 2.4-1.176-.659 3.372-2.144 6.19-5.283 7.953-4.69 2.639-11.386 1.785-14.907-1.883C1.531 22.455.664 19.76.276 16.875c-.062-.477-.184-.93-.276-1.387.008-.78.012-1.56.012-2.341v-.002Zm2.294-.573h19.71C21.888 6.39 17.98 1.997 12.636 1.96 6.77 1.914 2.56 6.202 2.306 12.572Z" fill="#FFF" fill-rule="evenodd"/></svg>