<svg width="39" height="52" xmlns="http://www.w3.org/2000/svg"><g fill="#FFF" fill-rule="nonzero"><path d="M12.565 41s-2.04 1.076 1.45 1.44c4.229.438 6.39.375 11.05-.425 0 0 1.224.697 2.935 1.3C17.555 47.379 4.36 43.08 12.565 41M11.798 35s-2.228 1.567 1.174 1.902c4.4.43 7.876.466 13.889-.634 0 0 .831.801 2.139 1.24-12.303 3.418-26.007.269-17.202-2.508M21.38 25.438c2.595 2.928-.682 5.562-.682 5.562s6.589-3.333 3.563-7.506C21.435 19.6 19.268 17.668 31 11c0 0-18.416 4.507-9.62 14.438"/><path d="M34.999 44.477s1.468 1.315-1.617 2.332c-5.866 1.931-24.415 2.514-29.568.077-1.852-.876 1.622-2.091 2.714-2.346 1.14-.269 1.791-.219 1.791-.219-2.06-1.577-13.315 3.097-5.717 4.435 20.72 3.652 37.772-1.644 32.397-4.279M14.088 29.01s-9.406 2.452-3.331 3.342c2.565.377 7.678.292 12.442-.146C27.09 31.846 31 31.079 31 31.079s-1.373.645-2.366 1.39C19.083 35.226.63 33.944 5.942 31.123c4.493-2.384 8.146-2.114 8.146-2.114M31.19 38.75c9.444-4.953 5.077-9.713 2.03-9.072-.747.157-1.08.293-1.08.293s.277-.439.806-.628c6.03-2.14 10.667 6.31-1.946 9.657 0 0 .146-.132.19-.25M24.656 0s5.239 5.494-4.97 13.943C11.502 20.721 17.82 24.585 19.684 29c-4.778-4.52-8.285-8.498-5.932-12.201C17.204 11.363 26.77 8.727 24.656 0"/><path d="M15.25 51.834c9.234.608 23.414-.337 23.75-4.834 0 0-.646 1.705-7.632 3.058-7.881 1.527-17.602 1.349-23.368.37 0 0 1.18 1.006 7.25 1.406"/></g></svg>