<svg width="46" height="47" xmlns="http://www.w3.org/2000/svg"><g fill="#FFF" fill-rule="nonzero"><path d="M22.69 0c-1.894.01-3.702.174-5.293.461-4.688.845-5.54 2.612-5.54 5.87v4.305h11.078v1.435H7.7c-3.22 0-6.038 1.973-6.92 5.726-1.017 4.301-1.062 6.986 0 11.477C1.567 32.618 3.448 35 6.667 35h3.81v-5.16c0-3.727 3.163-7.015 6.92-7.015H28.46c3.08 0 5.539-2.586 5.539-5.739V6.331c0-3.06-2.533-5.36-5.539-5.87A33.91 33.91 0 0 0 22.69 0ZM16.7 3.462c1.144 0 2.078.968 2.078 2.158 0 1.187-.935 2.146-2.079 2.146-1.148 0-2.078-.959-2.078-2.146 0-1.19.93-2.158 2.078-2.158Z"/><path d="M35.476 12v4.977c0 3.858-3.227 7.106-6.906 7.106H17.528c-3.025 0-5.528 2.624-5.528 5.695V40.45c0 3.038 2.605 4.824 5.528 5.695 3.499 1.044 6.855 1.232 11.042 0 2.783-.816 5.527-2.46 5.527-5.695V36.18H23.055v-1.424h16.57c3.213 0 4.41-2.272 5.527-5.682 1.155-3.51 1.106-6.887 0-11.39C44.358 14.44 42.842 12 39.625 12h-4.149Zm-6.21 27.026c1.145 0 2.074.952 2.074 2.13 0 1.18-.929 2.142-2.075 2.142-1.142 0-2.074-.961-2.074-2.142 0-1.177.933-2.13 2.074-2.13Z"/></g></svg>