<svg width="55" height="33" xmlns="http://www.w3.org/2000/svg"><g fill="#FFF" fill-rule="nonzero"><path d="M14.37 11.81c0 .669.073 1.211.203 1.61.148.397.333.831.592 1.301.092.145.13.29.13.416 0 .181-.112.362-.352.543l-1.165.76a.9.9 0 0 1-.481.162c-.185 0-.37-.09-.555-.253a5.61 5.61 0 0 1-.665-.85c-.185-.308-.37-.651-.574-1.067-1.442 1.664-3.254 2.496-5.436 2.496-1.554 0-2.793-.434-3.699-1.302C1.462 14.757 1 13.6 1 12.153c0-1.537.555-2.785 1.683-3.725 1.128-.94 2.626-1.411 4.53-1.411.629 0 1.276.054 1.96.145.685.09 1.387.235 2.127.398V6.24c0-1.375-.296-2.334-.87-2.894-.591-.56-1.59-.832-3.013-.832-.648 0-1.313.072-1.997.235-.685.163-1.35.362-1.998.615a5.383 5.383 0 0 1-.647.235c-.13.036-.222.054-.296.054-.259 0-.388-.18-.388-.56v-.887c0-.289.037-.506.13-.633.092-.126.258-.253.517-.38C3.385.869 4.162.598 5.068.38A11.45 11.45 0 0 1 7.953.036c2.2 0 3.81.488 4.845 1.465 1.017.977 1.534 2.46 1.534 4.449v5.86h.037Zm-7.508 2.749c.61 0 1.239-.109 1.904-.326.666-.217 1.258-.615 1.757-1.157a2.85 2.85 0 0 0 .629-1.158c.11-.434.185-.958.185-1.573v-.76a15.755 15.755 0 0 0-1.701-.307 14.243 14.243 0 0 0-1.739-.109c-1.239 0-2.145.235-2.755.724-.61.488-.906 1.175-.906 2.08 0 .85.222 1.482.684 1.916.444.452 1.091.67 1.942.67Zm14.849 1.953c-.333 0-.555-.055-.703-.181-.148-.109-.277-.362-.388-.705l-4.346-13.98c-.11-.362-.166-.597-.166-.724 0-.289.148-.452.443-.452h1.813c.351 0 .591.054.72.181.149.109.26.362.37.705l3.107 11.973 2.885-11.973c.092-.361.203-.596.351-.705.148-.108.407-.18.74-.18h1.48c.35 0 .591.053.739.18.148.109.277.362.351.705l2.922 12.117 3.2-12.117c.11-.361.24-.596.369-.705.148-.108.388-.18.721-.18h1.72c.296 0 .462.144.462.451 0 .09-.018.181-.037.29a2.529 2.529 0 0 1-.13.452l-4.456 13.98c-.11.361-.24.596-.388.705-.148.108-.388.18-.703.18h-1.59c-.351 0-.592-.053-.74-.18-.148-.127-.277-.362-.351-.723L27.24 3.96l-2.848 11.646c-.093.362-.203.597-.351.724-.148.126-.407.18-.74.18h-1.59ZM45.472 17a12.5 12.5 0 0 1-2.847-.326c-.925-.217-1.646-.452-2.127-.723-.296-.163-.5-.344-.573-.506a1.253 1.253 0 0 1-.111-.507v-.922c0-.38.148-.56.425-.56.111 0 .222.017.333.054.111.036.278.108.462.18.63.272 1.313.489 2.035.633.74.145 1.46.217 2.2.217 1.165 0 2.071-.199 2.7-.596.629-.398.961-.977.961-1.718a1.74 1.74 0 0 0-.499-1.266c-.333-.344-.961-.651-1.868-.94l-2.68-.815c-1.35-.416-2.35-1.03-2.96-1.844-.61-.796-.924-1.682-.924-2.623 0-.76.166-1.428.5-2.007a4.684 4.684 0 0 1 1.33-1.483 5.921 5.921 0 0 1 1.924-.94C44.493.09 45.269 0 46.083 0c.406 0 .832.018 1.239.072.425.055.813.127 1.202.2.37.09.72.18 1.054.289.332.108.591.217.776.325.26.145.444.29.555.452.11.145.166.344.166.597v.85c0 .38-.148.579-.425.579-.148 0-.388-.073-.703-.217-1.054-.47-2.237-.706-3.55-.706-1.054 0-1.886.163-2.46.507-.573.343-.868.868-.868 1.61 0 .506.184.94.554 1.283.37.344 1.054.688 2.034.995l2.626.814c1.332.416 2.293.995 2.866 1.736.574.742.851 1.592.851 2.532 0 .778-.166 1.483-.48 2.098a4.89 4.89 0 0 1-1.35 1.591c-.574.453-1.258.778-2.053 1.013a8.976 8.976 0 0 1-2.645.38ZM49.565 26.374C43.565 30.702 34.85 33 27.356 33 16.854 33 7.39 29.206.243 22.9c-.565-.498-.055-1.175.62-.783 7.73 4.382 17.267 7.036 27.131 7.036 6.656 0 13.967-1.354 20.695-4.133 1.003-.445 1.86.642.876 1.354Z"/><path d="M52.314 22.686c-.746-.973-4.934-.469-6.832-.235-.568.072-.657-.432-.142-.81 3.336-2.378 8.82-1.694 9.458-.901.639.81-.178 6.377-3.3 9.043-.48.415-.941.199-.728-.342.71-1.783 2.289-5.8 1.544-6.755Z"/></g></svg>