<svg width="43" height="48" xmlns="http://www.w3.org/2000/svg"><path d="M23.74.646c5.722 3.282 11.452 6.55 17.176 9.828.694.4 1.211.904 1.556 1.506.313.544.485 1.168.52 1.866l.006.266v5l.001.347L43 33.88c0 .797-.167 1.496-.503 2.1-.345.619-.87 1.138-1.579 1.545-5.725 3.279-11.455 6.547-17.178 9.829-1.543.885-3.04.852-4.571-.045-1.08-.633-4.21-2.423-7.566-4.34l-.674-.385-.676-.386-.793-.452c-3.03-1.73-5.93-3.386-7.378-4.219-.71-.408-1.234-.926-1.58-1.546C.168 35.378 0 34.679 0 33.889c.002-6.593 0-13.186.002-19.778 0-1.602.682-2.834 2.082-3.638C5.484 8.517 16.89 2.026 19.169.69c1.532-.897 3.028-.93 4.57-.045ZM21.073 8C12.196 8 5 15.164 5 24c0 2.899.775 5.617 2.129 7.962a16.079 16.079 0 0 0 13.573 8.034l.372.004.179-.001a16.08 16.08 0 0 0 13.568-7.706l.179-.3-6.985-4.028.033-.059a8.005 8.005 0 0 1-6.974 4.061 8.005 8.005 0 0 1-6.949-4.014A7.901 7.901 0 0 1 13.07 24c0-4.317 3.45-7.832 7.754-7.963l.25-.004h.09a8.005 8.005 0 0 1 6.658 3.686l.147.237 6.995-4.01-.15-.25a16.08 16.08 0 0 0-13.37-7.692L21.074 8Zm12.301 12H32.25v2.25H30v1.125h2.25v2.25H30v1.125h2.25V29h1.125v-2.25h2.25V29h1.125v-2.25H39v-1.125h-2.25v-2.25H39V22.25h-2.25V20h-1.125v2.25h-2.25V20Zm2.25 3.375v2.25h-2.25v-2.25h2.25Z" fill="#FFF" fill-rule="nonzero"/></svg>