<svg width="33" height="34" xmlns="http://www.w3.org/2000/svg"><path d="M17.5 32.364c.483.743 1.292 1.508 2.695 1.622h-.014c-1.683.14-2.331-.77-2.681-1.622ZM17.83.43c3.834.062 6.294 2.016 7.682 3.645 1.196 1.403 1.843 2.816 2.102 3.579-1.944-.196-3.266.184-3.936 1.136-1.458 2.069.798 6.085 1.882 8.015.198.354.37.66.424.79.353.849.81 1.416 1.144 1.83.102.127.201.25.277.357-.59.169-1.647.558-1.55 2.504-.04.489-.197 1.876-.38 3.343l-.08.631-.028.225-.11.33c-.019 1.463-.308 1.221-.435 2.857a6 6 0 0 1-.101.733c-.45 1.434-1.307 2.053-3.163 2.448-2.305.49-3.122-.678-3.66-2.013-.347-.862-.517-4.75-.396-9.043a.514.514 0 0 0-.023-.164 2.154 2.154 0 0 0-.064-.303c-.18-.625-.619-1.147-1.145-1.364-.21-.086-.593-.244-1.054-.126.098-.403.268-.857.453-1.35l.078-.206c.087-.234.197-.475.313-.731.626-1.382 1.484-3.275.553-7.55C16.264 8.4 15.1 7.618 13.334 7.8c-1.058.109-2.027.533-2.51.776a8.133 8.133 0 0 0-.287.152c.135-1.614.644-4.63 2.549-6.537C14.286.99 15.883.397 17.829.429ZM9.94 23.796c.32.633 1.364.911 1.503.946.575.143 1.13.213 1.659.213.173 0 .344-.007.512-.023-1.026.216-1.986.044-2.552-.097-.62-.154-1.47-.615-1.122-1.04ZM.002 7.613v-.015c.003.194.01.393.02.596.06 1.193.744 4.862 1.824 8.376 1.422 4.625 2.968 7.243 4.594 7.782.182.06.39.103.62.107C3.581 25.604.755 13.849.141 9.742L.1 9.454A9.629 9.629 0 0 1 0 7.951l.001-.338Zm15.869 13.308c.23.094.452.379.543.692.042.149.09.43-.067.649-1.327 1.845-3.262 1.822-4.652 1.476a2.31 2.31 0 0 1-.695-.296c.127-.06.351-.14.74-.219 1.885-.385 2.176-.657 2.812-1.458.116-.147.246-.31.41-.5l.13-.146c.34-.38.496-.315.779-.198Zm10.928 2.386c.4.124.916.181 1.474.18.33 0 .676-.019 1.02-.056-.5.083-1.021.129-1.501.13l-.352-.006-.373-.033a4.223 4.223 0 0 0-.287-.053l.019-.162ZM7.329.51c1.964.081 3.818.607 4.812.939l.164.056-.148.155C9.373 4.662 9.441 9.546 9.448 9.85c0 .12.01.29.024.524.051.857.146 2.45-.108 4.256-.236 1.678.285 3.32 1.429 4.505.117.122.24.237.37.347-.51.541-1.616 1.739-2.795 3.146-.833.995-1.41.805-1.598.742-1.234-.409-2.665-2.998-3.927-7.103-1.093-3.552-1.73-7.124-1.781-8.126-.16-3.168.614-5.375 2.299-6.562C4.427.83 5.76.545 7.098.513l.23-.003Zm20.399 20.255c.303.32 1.13.764 3.347.45.463-.045.969-.123 1.516-.234.02 0 .038 0 .056.002l.017-.016c-.288.267-.782.627-1.482.95-.602.277-1.61.485-2.566.53-1.057.049-1.595-.118-1.722-.22-.056-1.15.349-1.323.8-1.453l.034-.009Zm-15.696-.691c.64.34 1.342.53 2.06.55l.002.027.001.014a4.06 4.06 0 0 1-2.222-.42l.16-.171Zm2.343-11.207c.655.149 1.054.592 1.22 1.353.859 3.943.114 5.587-.485 6.907-.123.272-.24.53-.34.796l-.076.205c-.196.52-.377 1.004-.49 1.463-.98-.003-1.934-.419-2.66-1.17-.921-.956-1.34-2.285-1.148-3.647.268-1.907.169-3.568.116-4.46l-.018-.32c.434-.383 2.446-1.453 3.881-1.127ZM25.237.037c.125.003.25.007.373.014 2.235.204 4.743 1.074 6.645 3.495.28.357.455.906.528 1.604.104 3.007-1.471 8.713-4.717 13.785a24.065 24.065 0 0 0-.125-.157l-.053-.065c1.067-1.75.859-3.48.673-5.014-.076-.63-.148-1.225-.13-1.783.019-.592.098-1.1.174-1.591.094-.606.19-1.232.163-1.97a.81.81 0 0 0 .017-.277c-.067-.708-.881-2.827-2.54-4.744-.907-1.049-2.23-2.223-4.038-3.014.778-.16 1.84-.31 3.03-.283Zm2.494 8.67c-.01.51-.08.975-.155 1.46-.081.522-.165 1.06-.186 1.715-.02.637.06 1.3.137 1.94.156 1.294.317 2.626-.305 3.94a5.107 5.107 0 0 1-.275-.563c-.078-.186-.245-.485-.478-.898-.832-1.482-2.692-4.794-2.138-6.512.08.269.4.639.773.639a.55.55 0 0 0 .105-.01c.276-.053.478-.294.574-.432.146-.212.23-.448.215-.601-.034-.341-.475-.439-.893-.359a1.49 1.49 0 0 0-.349.113c.43-.36 1.285-.641 2.975-.433Zm-14.598.832a.483.483 0 0 0-.13.288c-.021.206.084.434.148.551.182.332.448.56.711.611.038.008.076.011.114.011.439 0 .838-.47.873-.818.044-.436-.414-.726-.86-.81V9.37c-.362-.07-.69-.005-.856.168Z" fill="#FFF" fill-rule="nonzero"/></svg>