<svg width="48" height="48" fill="none" xmlns="http://www.w3.org/2000/svg"><path d="M29.51 30.857c1.405 2.295 3.234 3.983 6.47 3.983 2.717 0 4.453-1.359 4.453-3.236 0-2.249-1.783-3.045-4.775-4.354l-1.64-.703c-4.733-2.017-7.877-4.543-7.877-9.883 0-4.92 3.748-8.664 9.606-8.664 4.17 0 7.168 1.451 9.328 5.252l-5.107 3.279c-1.125-2.016-2.338-2.81-4.221-2.81-1.921 0-3.139 1.218-3.139 2.81 0 1.968 1.219 2.764 4.033 3.983l1.64.703C43.853 23.607 47 26.043 47 31.52c0 5.905-4.639 9.14-10.869 9.14-6.091 0-10.026-2.902-11.952-6.707l5.33-3.097Zm-23.17.568c1.03 1.828 1.967 3.373 4.22 3.373 2.155 0 3.515-.843 3.515-4.121V8.374h6.559v22.392c0 6.791-3.982 9.882-9.795 9.882-5.251 0-8.292-2.717-9.839-5.99l5.34-3.233Z" fill="#fff"/></svg>