<svg width="62" height="29" xmlns="http://www.w3.org/2000/svg" xmlns:xlink="http://www.w3.org/1999/xlink"><defs><path d="M0 15.79C1.784 10.118 2.46 0 7.678 0c.397 0 .798.04 1.201.12C4.136 1.27 3.573 11.278.68 16.46c-.23-.218-.457-.442-.679-.67" id="a"/><path id="c" d="M8.879 0H0v16.46h8.879z"/><path id="e" d="M8.879 16.461V0H0v16.46h8.879z"/><path d="M0 16.34C2.894 11.158 3.456 1.15 8.2 0a7.3 7.3 0 0 1 1.12.315C5.063 2.484 3.886 12.201.6 16.88c-.2-.172-.403-.352-.6-.54" id="g"/><path id="i" d="M9.319 0H0v16.88h9.319z"/><path id="k" d="M9.319 16.88V0H0v16.88z"/><path id="m" d="M0 17h9V0H0v17z"/><path id="o" d="M0 0h8.982v16.999H0z"/><path d="m7.658.003 1.33 1.182C7.146 6.797 6.488 17 1.151 17c-.386 0-.772-.036-1.151-.11C4.86 15.662 5.483 4.902 7.658 0" id="q"/><path id="s" d="M0 16.999h8.988V0H0v16.999z"/><path id="u" d="M0 0v16.999h8.988V0z"/><path id="w" d="M0 .202h2v.235H0z"/><path d="M.003 16.275C4.275 14.066 4.646 4.062 8.055 0c.229.159.455.328.678.506C6.6 5.179 5.99 15.44 1.22 16.61A7.072 7.072 0 0 1 0 16.275" id="y"/><path id="A" d="M8.733 0H0v16.612h8.733z"/><path id="C" d="M8.733 16.612V0H0v16.612z"/><path d="M0 15.701C3.276 11.267 4.448 2.053 8.692 0c.872.304 1.75.771 2.63 1.388-3.41 4.063-3.78 14.067-8.052 16.275-1.085-.398-2.174-1.062-3.267-1.962" id="E"/><path id="G" d="M11.322 0H0v17.664h11.322z"/><path id="I" d="M11.322 17.664V0H0v17.664z"/><path id="K" d="M0 0h21v25H0z"/><path id="M" d="M0 0h21v25H0z"/><path id="O" d="M0 5.684 10.052 0l10.95 19.315-10.051 5.686L.003 5.684z"/><path id="P" d="M0 11.276h8.91V0H0v11.279z"/><path id="R" d="M0 0h8.903v11.279H0z"/><path d="M.332.03.257.02C.251.02.247.02.243.018L.179.012.169.01.015 0H0c4.198.12 6.117 2.243 7.068 5.324l1.84 5.958C7.148 8.78 5.382 5.8 3.606 2.458 2.751.848 1.448.176.332.032" id="T"/><path id="V" d="M0 11.279h8.907V0H0v11.279z"/><path id="X" d="M0 0v11.279h8.907V0H0z"/><path d="M0 .002V0c1.116.144 2.419.815 3.275 2.426 1.776 3.34 3.543 6.322 5.299 8.824.64 2.028 1.166 3.58 1.684 4.76C6.758 12.642 3.242 7.04 0 .002" id="Z"/><path id="ab" d="M0 16.01h10.258V0H0z"/><path id="ad" d="M0 0v16.01h10.258V0z"/><path d="m11.917 19.464-.032-.004a.515.515 0 0 0-.059-.009l-.035-.003-.063-.011-.028-.003-.136-.025-.016-.002-.062-.013-.034-.009-.064-.012-.03-.008-.225-.058-.026-.007-.068-.021-.03-.009-.068-.02c-.008-.002-.016-.006-.023-.006l-.156-.054-.076-.027-.03-.012a.434.434 0 0 1-.062-.024c-.008-.003-.017-.006-.022-.01-3.507-1.379-5.494-6.472-9.688-14.52A38.578 38.578 0 0 1 0 0h.225l2.09.003h.02l.133.003.155.011.009.001.065.006.015.003.076.008v.002C6.066 7.049 9.621 12.63 13.161 15.985c.39.879.773 1.55 1.193 2.057-.246.414-.515.76-.815 1.011-.004.002-.007.003-.01.006a.642.642 0 0 0-.049.023 1.05 1.05 0 0 1-.098.049.295.295 0 0 0-.056.025c-.016.005-.03.012-.044.019a1.93 1.93 0 0 0-.093.038l-.04.016a.701.701 0 0 0-.069.027l-.037.012c-.034.01-.065.022-.096.033-.005.001-.007.001-.008.003l-.111.031c-.01.004-.016.006-.026.008l-.092.027a2.912 2.912 0 0 1-.255.056c-.008 0-.017.003-.025.004l-.101.016c-.007.003-.013.003-.02.004l-.12.016c-.006.001-.013.003-.021.003-.032.005-.062.007-.092.01l-.147-.014" id="af"/><path id="ah" d="M3.778 0 0 21.336l17.266 3.032 3.777-21.336L3.778 0z"/><path id="aj" d="M3.778 0 0 21.336l17.265 3.032 3.778-21.336L3.777 0z"/><path d="M2.029 6.444 0 0c2.215 3.034 4.395 6.85 6.471 11.256-2.422-.758-3.714-2.492-4.443-4.811" id="al"/><path id="an" d="M0 11.256h6.471V0H0z"/><path id="ap" d="M0 0v11.256h6.471V0z"/><path id="ar" d="M0 9.746h28.072V0H0v9.746z"/><path id="at" d="M0 10.363h28.691V0H0v10.364z"/><path id="av" d="M0 0h28.067v9.739H0V0z"/><path id="ax" d="M0 9.746h28.072V0H0v9.746z"/><path id="az" d="M0 0h28.067v9.739H0V0z"/><path id="aB" d="M0 9.739h28.065V0H0v9.739z"/><path id="aD" d="M28.064 0H0v9.739h28.064z"/><path id="aF" d="M28.064 9.738V0H0v9.739h28.064z"/><path id="aG" d="M28.064 0H0v9.739h28.064z"/><path id="aH" d="M0 23h18.412V0H0v23z"/><path id="aJ" d="M0 0h11.906v18.945H0V0z"/><path d="M.338.16 0 0c4.307 1.913 9.444 9.5 11.904 18.945h-.502C5.752 8.893 3.934 2.165.335.161" id="aL"/><path id="aN" d="M18.41 20.398 14.797 0 0 2.598l3.612 20.399 14.798-2.599z"/><path id="aP" d="M18.41 20.398 14.797 0 0 2.598l3.612 20.399 14.798-2.599z"/><path d="M12.139 19.18h-2.067c-.07 0-.138-.002-.206-.003l-.194-.002h-.005l-.392-.018-.186-.392c-2.048-4.378-4.2-8.17-6.384-11.185C1.677 4.41.925 2.485 0 1.353.396.678.854.203 1.402 0c.016.005.028.007.042.01.003.002.007.002.01.002.009.002.02.006.029.007.023.005.046.01.068.018l.042.01.06.016c.013.006.026.008.04.011l.09.028a.234.234 0 0 0 .045.014c.017.007.035.012.05.019.02.006.037.01.053.016.015.004.03.01.044.017.035.012.07.023.107.037.01.003.019.009.029.01.022.01.044.016.062.027l.03.01a6.699 6.699 0 0 1 .57.261c3.552 1.99 5.345 8.676 10.92 18.666h-1.557.003Z" id="aR"/><path id="aT" d="M13.695 0H0v19.183h13.695z"/><path id="aV" d="M13.695 19.183V0H0v19.183z"/><path id="aX" d="M0 2.719h11.756V0H0z"/><path id="aZ" d="M0 3.337h12.372V0H0z"/><path id="bb" d="M0 0h11.754v2.717H0z"/><path id="bd" d="M0 2.719h11.756V0H0z"/><path id="bf" d="M0 0h11.754v2.717H0z"/><path id="bh" d="M11.753 0H0v2.717h11.753z"/><path id="bj" d="M0 2.717h11.753V0H0z"/><path id="bl" d="M0 0v2.717h11.753V0z"/><path id="bm" d="M0 2.717h11.753V0H0z"/><path id="bn" d="M0 5.639h9.309V0H0v5.639z"/><path id="bp" d="M0 0h8.463v1.824H0z"/><path d="m.429.808.336.015C1.728.823 2.56.523 3.3 0 4.08.615 5.02.83 6.325.83H0C.145.83.288.822.429.808" id="br"/><path id="bt" d="m1.222 5.321 5.689-2.367L5.69 0 0 2.367l1.222 2.954z"/><path id="bv" d="m1.222 5.321 5.689-2.367L5.69 0 0 2.367z"/><path d="M3.025 1.463C1.719 1.463.778 1.248 0 .633.258.449.508.237.743 0c1.083.691 2.155 1.148 3.213 1.347.404.077.806.115 1.203.115H3.025Z" id="bx"/><path id="bz" d="m0 3.159 4.828 2.195 1.428-3.159L1.428 0z"/><path id="bB" d="m0 3.159 4.828 2.195 1.428-3.159L1.428 0z"/><path id="bD" d="M0 15.251h27.699V0H0v15.251z"/><path id="bF" d="M0 15.86h28.308V0H0z"/><path id="bH" d="M0 0h27.693v15.24H0V0z"/><path id="bJ" d="M0 15.251h27.699V0H0v15.251z"/><path id="bL" d="M0 0h27.693v15.24H0V0z"/><path id="bN" d="M27.689 0H0v15.24h27.689z"/><path id="bP" d="M0 15.24h27.689V0H0v15.239z"/><path id="bR" d="M0 0v15.239h27.689V0z"/><path id="bS" d="M-.001 15.24h27.69V0H-.001v15.239z"/><path id="bT" d="M0 15.764h10.184V0H0v15.764z"/><path id="bV" d="M0 0h10.136v15.76H0V0z"/><path d="m3.573 4.182 2.003 6.405c.718 2.306 1.99 4.028 4.382 4.781l.183.392c-3.9-.234-5.717-2.223-6.634-5.166C1.905 5.454.934 2.123 0 0c1.194 1.145 2.387 2.55 3.573 4.182" id="bX"/><path id="bZ" d="M10.142 0H0v15.76h10.142z"/><path id="cb" d="M10.142 15.759V0H0v15.759z"/></defs><g fill="none" fill-rule="evenodd"><g transform="matrix(1 0 0 -1 21 22)"><mask id="b" fill="#fff"><use xlink:href="#a"/></mask><g mask="url(#b)"><g transform="translate(-.018 -.004)"><mask id="d" fill="#fff"><use xlink:href="#c"/></mask><g mask="url(#d)"><mask id="f" fill="#fff"><use xlink:href="#e"/></mask><path fill="#FFF" fill-rule="nonzero" mask="url(#f)" d="M8.879 0H0v16.46h8.879z"/></g></g></g></g><g transform="matrix(1 0 0 -1 21.68 21.88)"><mask id="h" fill="#fff"><use xlink:href="#g"/></mask><g mask="url(#h)"><g transform="translate(.03 -.022)"><mask id="j" fill="#fff"><use xlink:href="#i"/></mask><g mask="url(#j)"><mask id="l" fill="#fff"><use xlink:href="#k"/></mask><path fill="#FFF" fill-rule="nonzero" mask="url(#l)" d="M9.319 0H0v16.88h9.319z"/></g></g></g></g><path d="M26.127 3c-.37 0-.747.032-1.125.095-.987.162-1.99.534-3.002 1.096.277.239.54.51.786.809 1.029-.748 2.05-1.297 3.07-1.629A7.649 7.649 0 0 1 27 3.093 4.01 4.01 0 0 0 26.127 3" fill="#FFF" fill-rule="nonzero"/><g transform="matrix(1 0 0 -1 27 19)"><mask id="n" fill="#fff"><use xlink:href="#m"/></mask><g mask="url(#n)"><g transform="translate(.001)"><mask id="p" fill="#fff"><use xlink:href="#o"/></mask><g mask="url(#p)"><g transform="translate(-.001 -.003)"><mask id="r" fill="#fff"><use xlink:href="#q"/></mask><g mask="url(#r)"><g transform="translate(.012 .003)"><mask id="t" fill="#fff"><use xlink:href="#s"/></mask><g mask="url(#t)"><mask id="v" fill="#fff"><use xlink:href="#u"/></mask><path fill="#FFF" fill-rule="nonzero" mask="url(#v)" d="M0 16.999h8.988V0H0v16.999z"/></g></g></g></g></g></g></g></g><g transform="matrix(1 0 0 -1 26 4)"><mask id="x" fill="#fff"><use xlink:href="#w"/></mask><path d="M.902.202a1.876 1.876 0 0 1-.905.235L2.001.422c-.369 0-.736-.074-1.099-.22" fill="#FFF" fill-rule="nonzero" mask="url(#x)"/></g><path d="M35.047 20.704a7.819 7.819 0 0 1-.559-.704c-.832.685-1.663 1.205-2.488 1.542.294.168.606.291.927.367.253.06.513.091.793.091.926 0 1.657-.128 2.28-.474a4.462 4.462 0 0 1-.951-.825" fill="#FFF" fill-rule="nonzero"/><g transform="matrix(1 0 0 -1 26.267 19.611)"><mask id="z" fill="#fff"><use xlink:href="#y"/></mask><g mask="url(#z)"><g transform="translate(.025 -.02)"><mask id="B" fill="#fff"><use xlink:href="#A"/></mask><g mask="url(#B)"><mask id="D" fill="#fff"><use xlink:href="#C"/></mask><path fill="#FFF" fill-rule="nonzero" mask="url(#D)" d="M8.733 0H0v16.612h8.733z"/></g></g></g></g><g transform="matrix(1 0 0 -1 23 21)"><mask id="F" fill="#fff"><use xlink:href="#E"/></mask><g mask="url(#F)"><g transform="translate(-.005 -.005)"><mask id="H" fill="#fff"><use xlink:href="#G"/></mask><g mask="url(#H)"><g><mask id="J" fill="#fff"><use xlink:href="#I"/></mask><path fill="#FFF" fill-rule="nonzero" mask="url(#J)" d="M11.322 0H0v17.665h11.322z"/></g></g></g></g></g><path d="M21.368 4 21 4.374c.161.486.31 1.032.45 1.626l.55-.719a10.753 10.753 0 0 0-.631-1.278" fill="#FFF" fill-rule="nonzero"/><path d="M21.391 4 21 4.479c.203.458.39.97.566 1.522L22 5.312A11.469 11.469 0 0 0 21.391 4" fill="#FFF" fill-rule="nonzero"/><g fill="#FFF" fill-rule="nonzero"><path d="M19.003 6c.666-.481 1.333-.914 1.997-1.297l-.48-.696C19.985 4.5 19.496 5.15 19 6M19.484 3.029c.384.243.726.577 1.04.978l.301-.257A6.167 6.167 0 0 0 19.41 3l.064.023a.025.025 0 0 0 .01.006"/></g><path d="M20.283 4 20 4.27c.157.223.303.466.449.73L21 4.655A6.935 6.935 0 0 0 20.285 4" fill="#FFF" fill-rule="nonzero"/><g transform="matrix(1 0 0 -1 0 29)"><mask id="L" fill="#fff"><use xlink:href="#K"/></mask><g mask="url(#L)"><g><mask id="N" fill="#fff"><use xlink:href="#M"/></mask></g></g></g><g transform="matrix(1 0 0 -1 8.582 21.903)"><mask id="Q" fill="#fff"><use xlink:href="#P"/></mask><g mask="url(#Q)"><g transform="translate(.003)"><mask id="S" fill="#fff"><use xlink:href="#R"/></mask><g mask="url(#S)"><g transform="translate(-.003 -.003)"><mask id="U" fill="#fff"><use xlink:href="#T"/></mask><g mask="url(#U)"><g transform="translate(.003)"><mask id="W" fill="#fff"><use xlink:href="#V"/></mask><g mask="url(#W)"><g><mask id="Y" fill="#fff"><use xlink:href="#X"/></mask><path fill="#FFF" fill-rule="nonzero" mask="url(#Y)" d="M0 11.279h8.907V0H0v11.279z"/></g></g></g></g></g></g></g></g></g><g transform="matrix(1 0 0 -1 8.914 21.877)"><mask id="aa" fill="#fff"><use xlink:href="#Z"/></mask><g mask="url(#aa)"><g transform="translate(.022 -.024)"><mask id="ac" fill="#fff"><use xlink:href="#ab"/></mask><g mask="url(#ac)"><mask id="ae" fill="#fff"><use xlink:href="#ad"/></mask><path fill="#FFF" fill-rule="nonzero" mask="url(#ae)" d="M0 16.01h10.258V0H0z"/></g></g></g></g><path d="M7 17a209.025 209.025 0 0 1-2 5h1.288A55.58 55.58 0 0 1 7 17" fill="#FFF" fill-rule="nonzero"/><g transform="matrix(1 0 0 -1 6 21.974)"><mask id="ag" fill="#fff"><use xlink:href="#af"/></mask><g mask="url(#ag)"><g transform="translate(-3.4 -2.443)"><mask id="ai" fill="#fff"><use xlink:href="#ah"/></mask><g mask="url(#ai)"><g><mask id="ak" fill="#fff"><use xlink:href="#aj"/></mask><path fill="#FFF" fill-rule="nonzero" mask="url(#ak)" d="M3.778 0 0 21.336l17.266 3.031 3.777-21.335L3.778 0z"/></g></g></g></g></g><g transform="matrix(1 0 0 -1 39.75 13.73)"><mask id="am" fill="#fff"><use xlink:href="#al"/></mask><g mask="url(#am)"><g transform="translate(.012 .003)"><mask id="ao" fill="#fff"><use xlink:href="#an"/></mask><g mask="url(#ao)"><mask id="aq" fill="#fff"><use xlink:href="#ap"/></mask><path fill="#FFF" fill-rule="nonzero" mask="url(#aq)" d="M0 11.256h6.471V0H0z"/></g></g></g></g><g transform="matrix(1 0 0 -1 33.928 10.086)"><mask id="as" fill="#fff"><use xlink:href="#ar"/></mask><g mask="url(#as)"><g transform="translate(-.306 -.305)"><mask id="au" fill="#fff"><use xlink:href="#at"/></mask><g mask="url(#au)"><g transform="translate(.306 .305)"><mask id="aw" fill="#fff"><use xlink:href="#av"/></mask><g mask="url(#aw)"><mask id="ay" fill="#fff"><use xlink:href="#ax"/></mask><g mask="url(#ay)"><mask id="aA" fill="#fff"><use xlink:href="#az"/></mask><g mask="url(#aA)"><mask id="aC" fill="#fff"><use xlink:href="#aB"/></mask><g mask="url(#aC)"><g transform="translate(.008 .007)"><mask id="aE" fill="#fff"><use xlink:href="#aD"/></mask></g></g></g></g></g></g></g></g></g></g><g transform="matrix(1 0 0 -1 36.221 23)"><mask id="aI" fill="#fff"><use xlink:href="#aH"/></mask><g mask="url(#aI)"><g transform="translate(3.26 2)"><mask id="aK" fill="#fff"><use xlink:href="#aJ"/></mask><g mask="url(#aK)"><g transform="translate(.002)"><mask id="aM" fill="#fff"><use xlink:href="#aL"/></mask><g mask="url(#aM)"><g transform="translate(-3.262 -1.996)"><mask id="aO" fill="#fff"><use xlink:href="#aN"/></mask><g mask="url(#aO)"><mask id="aQ" fill="#fff"><use xlink:href="#aP"/></mask><path fill="#FFF" fill-rule="nonzero" mask="url(#aQ)" d="M18.41 20.398 14.797 0 0 2.598l3.612 20.399 14.798-2.599z"/></g></g></g></g></g></g></g></g><path d="M36.976 20c1.033-1.091 1.876-2.945 3.024-6-1.325 1.574-2.657 2.927-3.996 4.03-.001.004-.001.007-.004.011.291.754.611 1.421.976 1.959M37.426 20c-.355.264-.73.464-1.148.612l-.278.09c.453.15.949.245 1.46.28h.004l.239.014h.015l.111.003h.016l.118.001.127-.001.039-.002.09-.001.043-.004.084-.003c.004 0 .007 0 .01-.002h.032l.093-.007h.008a.446.446 0 0 1 .028-.003l.1-.01c.01 0 .02 0 .03-.002l.113-.01h.006c.003-.002.008-.002.01-.002l.224-.03c-.618-.135-1.135-.462-1.58-.923" fill="#FFF" fill-rule="nonzero"/><g fill="#FFF" fill-rule="nonzero"><path d="M29 21.999a2.78 2.78 0 0 0 1.158-.267 4.627 4.627 0 0 0 1.08-.698c.3.351.614.61.947.775.258.125.524.19.81.19H29Z"/><path d="M32.993 21.999c.946 0 1.694-.267 2.33-.999.387.502.81.822 1.248.942h.003l.204.043h.013l.095.012h.013L37 22h-4.01l.003-.001Z"/></g><path d="m37.003 22.023.147-.001.046-.001.103-.001.05-.002.098-.002h.011l.039-.002.107-.003h.01l.032-.002.116-.005.034-.002.13-.006h.007l.013-.002.26-.017c.254.03.523.044.794.043l-2 .002h.003ZM36.09 18.005 36.09 18l-1.373 1.126-.716.503.62.631a4.77 4.77 0 0 0 1.057.74l.257-.13A3.874 3.874 0 0 0 37 19.995c-.34-.546-.64-1.222-.913-1.987" fill="#FFF" fill-rule="nonzero"/><g><g transform="matrix(1 0 0 -1 36.714 21)"><mask id="aS" fill="#fff"><use xlink:href="#aR"/></mask><g mask="url(#aS)"><g transform="translate(-.007 -.002)"><mask id="aU" fill="#fff"><use xlink:href="#aT"/></mask><g mask="url(#aU)"><g transform="translate(0 -.003)"><mask id="aW" fill="#fff"><use xlink:href="#aV"/></mask><path fill="#FFF" fill-rule="nonzero" mask="url(#aW)" d="M13.695.003H0v19.183h13.695z"/></g></g></g></g></g><g transform="matrix(1 0 0 -1 14 4.182)"><mask id="aY" fill="#fff"><use xlink:href="#aX"/></mask><g mask="url(#aY)"><g transform="translate(-.31 -.31)"><mask id="ba" fill="#fff"><use xlink:href="#aZ"/></mask><g mask="url(#ba)"><g transform="translate(.31 .313)"><mask id="bc" fill="#fff"><use xlink:href="#bb"/></mask><g mask="url(#bc)"><g transform="translate(0 -.002)"><mask id="be" fill="#fff"><use xlink:href="#bd"/></mask><g mask="url(#be)"><g transform="translate(0 .002)"><mask id="bg" fill="#fff"><use xlink:href="#bf"/></mask><g mask="url(#bg)"><g transform="translate(.002)"><mask id="bi" fill="#fff"><use xlink:href="#bh"/></mask><g mask="url(#bi)"><g transform="translate(-.003 -.002)"><mask id="bk" fill="#fff"><use xlink:href="#bj"/></mask></g></g></g></g></g></g></g></g></g></g></g></g></g><g transform="matrix(1 0 0 -1 17.293 5.64)"><mask id="bo" fill="#fff"><use xlink:href="#bn"/></mask><g mask="url(#bo)"><g transform="translate(.299 1.578)"><mask id="bq" fill="#fff"><use xlink:href="#bp"/></mask><g mask="url(#bq)"><path d="M.43 1.802.454 1.8a.475.475 0 0 0 .065-.007c.007 0 .014-.002.02-.003l.119-.015.02-.004.099-.016a.117.117 0 0 1 .025-.005l.23-.05.02-.006.093-.026c.01-.002.017-.004.025-.008l.11-.03c.001-.003.003-.003.007-.004l.093-.033.037-.012.068-.031a.323.323 0 0 0 .04-.014l.09-.038.045-.02.055-.023.049-.023.049-.025c.395-.195.76-.454 1.096-.77.12.128.25.246.388.355a4.275 4.275 0 0 1-2.871.808" fill="#FFF" fill-rule="nonzero"/><path d="M2.913.64C3.119.445 3.317.231 3.5 0l.54.361a5.802 5.802 0 0 1-.743.633 3.652 3.652 0 0 1-.389-.355" fill="#FFF" fill-rule="nonzero"/><g transform="translate(0 .994)"><mask id="bs" fill="#fff"><use xlink:href="#br"/></mask><g mask="url(#bs)"><g transform="translate(-.3 -2.253)"><mask id="bu" fill="#fff"><use xlink:href="#bt"/></mask><g mask="url(#bu)"><g><mask id="bw" fill="#fff"><use xlink:href="#bv"/></mask><path fill="#FFF" fill-rule="nonzero" mask="url(#bw)" d="m1.222 5.321 5.689-2.367L5.69 0 0 2.367l1.222 2.954z"/></g></g></g></g></g><g transform="translate(3.301 .361)"><mask id="by" fill="#fff"><use xlink:href="#bx"/></mask><g mask="url(#by)"><g transform="translate(-.546 -1.936)"><mask id="bA" fill="#fff"><use xlink:href="#bz"/></mask><g mask="url(#bA)"><mask id="bC" fill="#fff"><use xlink:href="#bB"/></mask><path fill="#FFF" fill-rule="nonzero" mask="url(#bC)" d="m0 3.159 4.828 2.195 1.428-3.159L1.428 0z"/></g></g></g></g></g></g></g></g><g><g transform="matrix(1 0 0 -1 27.301 18.547)"><mask id="bE" fill="#fff"><use xlink:href="#bD"/></mask><g mask="url(#bE)"><g transform="translate(-.3 -.31)"><mask id="bG" fill="#fff"><use xlink:href="#bF"/></mask><g mask="url(#bG)"><g transform="translate(.3 .322)"><mask id="bI" fill="#fff"><use xlink:href="#bH"/></mask><g mask="url(#bI)"><g transform="translate(0 -.011)"><mask id="bK" fill="#fff"><use xlink:href="#bJ"/></mask><g mask="url(#bK)"><g transform="translate(0 .011)"><mask id="bM" fill="#fff"><use xlink:href="#bL"/></mask><g mask="url(#bM)"><g transform="translate(.002)"><mask id="bO" fill="#fff"><use xlink:href="#bN"/></mask><g mask="url(#bO)"><g transform="translate(.008 -.011)"><mask id="bQ" fill="#fff"><use xlink:href="#bP"/></mask></g></g></g></g></g></g></g></g></g></g></g></g></g><g transform="matrix(1 0 0 -1 35.849 17.604)"><mask id="bU" fill="#fff"><use xlink:href="#bT"/></mask><g mask="url(#bU)"><g><mask id="bW" fill="#fff"><use xlink:href="#bV"/></mask><g mask="url(#bW)"><g transform="translate(-.003)"><mask id="bY" fill="#fff"><use xlink:href="#bX"/></mask><g mask="url(#bY)"><g transform="translate(.045 .005)"><mask id="ca" fill="#fff"><use xlink:href="#bZ"/></mask><g mask="url(#ca)"><g><mask id="cc" fill="#fff"><use xlink:href="#cb"/></mask><path fill="#FFF" fill-rule="nonzero" mask="url(#cc)" d="M10.142 0H0v15.759h10.142z"/></g></g></g></g></g></g></g></g></g></g></g></g></svg>