<?xml version="1.0" encoding="UTF-8"?>
<svg width="98px" height="65px" viewBox="0 0 98 65" version="1.1" xmlns="http://www.w3.org/2000/svg" xmlns:xlink="http://www.w3.org/1999/xlink">
    <title>EF81FE48-EC6E-4A4F-88BD-736935E98C42</title>
    <defs>
        <linearGradient x1="24.1284476%" y1="36.3221715%" x2="59.9606844%" y2="53.3997727%" id="linearGradient-1">
            <stop stop-color="#1EDD8E" offset="0%"></stop>
            <stop stop-color="#53C0D2" offset="100%"></stop>
        </linearGradient>
    </defs>
    <g id="Designs" stroke="none" stroke-width="1" fill="none" fill-rule="evenodd">
        <g id="1.0.Homepage.v4" transform="translate(-245.000000, -8470.000000)" fill="url(#linearGradient-1)">
            <g id="9th-Section-/-Footer" transform="translate(0.000000, 8047.000000)">
                <g id="right_arrow_footer" transform="translate(245.000000, 423.000000)">
                    <path d="M97.9564477,32.1106011 C97.9383009,32.0226075 97.9063625,31.9396627 97.8787793,31.8559967 C97.8620843,31.8062299 97.8519221,31.7550205 97.8315977,31.7066962 C97.7931264,31.614375 97.7415895,31.5299878 97.6915043,31.4456005 C97.6697282,31.4088163 97.6544849,31.3698683 97.6312569,31.3345266 C97.5543145,31.221289 97.466484,31.115264 97.369943,31.0186153 C97.3670395,31.0157303 97.3648619,31.0114027 97.3619584,31.0085177 L73.4081772,7.21563408 C72.557455,6.37031883 71.1782979,6.37176134 70.3283016,7.21635534 C69.4783053,8.06167059 69.4783053,9.43134096 70.3290275,10.2766562 L90.5634397,30.3752525 L2.17761647,30.3752525 C0.974846308,30.3752525 0,31.3446243 0,32.5390288 C0,33.7341545 0.974846308,34.702805 2.17761647,34.702805 L90.5648915,34.702805 L63.791097,61.3064339 C62.9403748,62.1517492 62.9403748,63.5214196 63.791097,64.3660136 C64.216458,64.7886712 64.7739279,65 65.3306718,65 C65.8881416,65 66.4456114,64.7886712 66.8709725,64.3660136 L97.3605066,34.0702611 C97.4614029,33.9700061 97.5521369,33.8603748 97.6312569,33.7420883 C97.6530331,33.710353 97.6668247,33.67429 97.6864232,33.6418334 C97.7394119,33.5538398 97.7916747,33.4658462 97.8315977,33.3706401 C97.8511962,33.3244795 97.8606325,33.2747127 97.8766017,33.2271096 C97.9056366,33.1412798 97.9383009,33.0568925 97.9564477,32.9667352 C97.9833049,32.8325811 97.9970965,32.6955419 97.9978224,32.5570602 C97.9978224,32.5505689 98,32.5447988 98,32.5390288 L98,32.5390288 L98,32.5383075 C98,32.3940557 97.9847567,32.2505253 97.9564477,32.1106011 M65.6101695,4.93670886 C65.7687211,4.93670886 65.9348228,4.92174918 66.0933744,4.88434998 C66.251926,4.85443062 66.4104777,4.80955158 66.5614792,4.74971286 C66.7124807,4.6823943 66.8559322,4.6075959 66.9918336,4.51783783 C67.127735,4.42807975 67.2560863,4.33084183 67.3693374,4.21116439 C67.8374422,3.75489415 68.1016949,3.11910776 68.1016949,2.46836169 C68.1016949,1.81761561 67.8374422,1.18182922 67.3693374,0.725558987 C66.7955316,0.149611313 65.9348228,-0.112183084 65.1194145,0.0448935541 C64.9608629,0.0822927537 64.8098613,0.127171793 64.6588598,0.187010513 C64.5078582,0.254329072 64.3644068,0.329127471 64.2285054,0.41888555 C64.092604,0.508643629 63.9642527,0.605881548 63.8434515,0.725558987 C63.3828968,1.18182922 63.1186441,1.81761561 63.1186441,2.46836169 C63.1186441,3.11910776 63.3828968,3.75489415 63.8434515,4.21116439 C64.3115562,4.67491446 64.9533128,4.93670886 65.6101695,4.93670886" id="Combined-Shape"></path>
                </g>
            </g>
        </g>
    </g>
</svg>