<svg width="31" height="31" xmlns="http://www.w3.org/2000/svg"><defs><linearGradient x1="24.128%" y1="18.908%" x2="59.961%" y2="57.728%" id="a"><stop stop-color="#1EDD8E" offset="0%"/><stop stop-color="#53C0D2" offset="100%"/></linearGradient></defs><g fill="none" fill-rule="evenodd"><path d="M0 0h31v31H0z"/><circle stroke="url(#a)" stroke-width="1.4" cx="15.5" cy="15.5" r="14.8"/><path d="M19.822 8.455h-8.644a2.726 2.726 0 0 0-2.723 2.723v8.644a2.726 2.726 0 0 0 2.723 2.723h8.644a2.726 2.726 0 0 0 2.723-2.723v-8.644a2.726 2.726 0 0 0-2.723-2.723Zm.781 1.624.312-.001v2.388l-2.381.008-.008-2.389 2.077-.006Zm-7.114 3.974A2.477 2.477 0 0 1 15.5 13.02c.828 0 1.56.409 2.01 1.033.295.408.47.907.47 1.447a2.483 2.483 0 0 1-2.48 2.48 2.483 2.483 0 0 1-2.48-2.48c0-.54.176-1.039.47-1.447Zm7.684 5.77c0 .744-.606 1.35-1.35 1.35h-8.645c-.745 0-1.35-.606-1.35-1.35v-5.77h2.104a3.825 3.825 0 0 0-.284 1.447 3.858 3.858 0 0 0 3.852 3.853 3.858 3.858 0 0 0 3.853-3.853c0-.511-.103-1-.284-1.447h2.104v5.77Z" fill="url(#a)"/></g></svg>