<svg width="31" height="31" xmlns="http://www.w3.org/2000/svg"><defs><linearGradient x1="24.128%" y1="18.908%" x2="59.961%" y2="57.728%" id="a"><stop stop-color="#1EDD8E" offset="0%"/><stop stop-color="#53C0D2" offset="100%"/></linearGradient></defs><g fill="none" fill-rule="evenodd"><path d="M0 0h31v31H0z"/><circle stroke="url(#a)" stroke-width="2" cx="15.5" cy="15.5" r="14.5"/><path d="M8.81 12.973h2.746v9.572H8.81v-9.572Zm1.303-1.197h-.02c-.994 0-1.638-.732-1.638-1.659 0-.945.663-1.662 1.677-1.662 1.013 0 1.636.715 1.656 1.66 0 .926-.643 1.66-1.675 1.66Zm12.432 10.77h-3.114V17.59c0-1.296-.487-2.18-1.558-2.18-.82 0-1.275.596-1.487 1.173-.08.205-.067.493-.067.782v5.18h-3.086s.04-8.776 0-9.573h3.086v1.502c.182-.657 1.168-1.594 2.741-1.594 1.952 0 3.485 1.378 3.485 4.341v5.323Z" fill="url(#a)"/></g></svg>