<svg viewBox="0 0 486 62" xmlns="http://www.w3.org/2000/svg" xmlns:xlink="http://www.w3.org/1999/xlink"><defs><linearGradient x1="0%" y1="100%" x2="99.999%" y2="100%" id="b"><stop stop-color="#0ECC7E" offset="0%"/><stop stop-color="#00C6D1" offset="100%"/></linearGradient><path d="M0 23.797C0 36.94 10.655 47.595 23.798 47.595a5.288 5.288 0 0 0 0-10.577c-7.303 0-13.222-5.919-13.222-13.221 0-7.302 5.919-13.221 13.222-13.221 7.302 0 13.222 5.919 13.222 13.221h-.001a5.289 5.289 0 0 0 10.577 0C47.596 10.654 36.941 0 23.798 0 10.655 0 0 10.654 0 23.797" id="a"/></defs><g fill="none" fill-rule="evenodd"><path fill="#102532" d="M92.165 44.722 76.387 14.405v33.577H67.65V2.342h12.127l12.519 24.516 12.517-24.515h12.128v45.639h-8.932V14.47zM134.348 48.568c-3.651 0-6.63-.967-8.932-2.9-2.305-1.934-3.456-4.445-3.456-7.532 0-3.215 1.239-5.737 3.717-7.563 2.477-1.825 5.889-2.738 10.236-2.738a27.045 27.045 0 0 1 8.28 1.304v-2.413c0-1.955-.61-3.432-1.825-4.433-1.218-.999-3-1.5-5.347-1.5-1.434 0-2.99.23-4.661.685-1.675.456-3.576 1.163-5.705 2.12l-3.26-6.586c2.65-1.216 5.226-2.129 7.726-2.738a31.162 31.162 0 0 1 7.4-.913c4.563 0 8.117 1.098 10.66 3.292 2.542 2.196 3.814 5.293 3.814 9.291v22.038h-8.802v-2.348a15.897 15.897 0 0 1-4.532 2.217c-1.586.478-3.357.717-5.313.717M130.5 37.941c0 1.304.565 2.337 1.696 3.097 1.13.76 2.629 1.141 4.498 1.141 1.477 0 2.837-.184 4.075-.554a12.614 12.614 0 0 0 3.423-1.598v-5.085a16.27 16.27 0 0 0-3.423-.946 23.157 23.157 0 0 0-3.75-.293c-2.042 0-3.64.381-4.791 1.141-1.152.761-1.728 1.793-1.728 3.097M159.325 47.982V2.342l8.933-1.956v27.97l14.669-14.343h10.106l-15.908 15.583 16.886 18.386h-11.41l-14.343-15.517v15.517z"/><g fill="#102532"><path d="M200.596 10.558c-1.392 0-2.586-.5-3.586-1.5s-1.5-2.194-1.5-3.586c0-1.391.5-2.585 1.5-3.586 1-1 2.194-1.5 3.586-1.5 1.39 0 2.585.5 3.586 1.5.999 1 1.499 2.195 1.499 3.586 0 1.392-.5 2.587-1.5 3.586-1 1-2.194 1.5-3.585 1.5Zm-4.434 37.424h8.933v-33.97h-8.933v33.97ZM211.666 47.982v-33.97h8.933v2.674a14.138 14.138 0 0 1 4.335-2.477c1.585-.564 3.315-.848 5.184-.848 3.912 0 7.127 1.262 9.649 3.782 2.52 2.52 3.78 5.759 3.78 9.714v21.125h-8.931V28.16c0-2.13-.642-3.846-1.924-5.15-1.282-1.304-2.988-1.956-5.118-1.956-1.477 0-2.815.293-4.01.88a7.883 7.883 0 0 0-2.965 2.51v23.537h-8.933ZM265.05 48.177c-2.391 0-4.64-.456-6.748-1.369-2.11-.913-3.934-2.152-5.477-3.716-1.543-1.565-2.76-3.4-3.651-5.51-.891-2.107-1.336-4.378-1.336-6.813 0-2.39.456-4.639 1.369-6.748.912-2.108 2.15-3.945 3.716-5.51 1.565-1.564 3.412-2.792 5.542-3.683 2.129-.89 4.41-1.337 6.846-1.337 1.695 0 3.314.24 4.857.718a17.547 17.547 0 0 1 4.336 2.021v-2.217h8.802v33.97c0 4.475-1.446 7.93-4.336 10.365-2.891 2.434-7.053 3.652-12.485 3.652-2.608 0-5.12-.26-7.531-.783-2.412-.52-4.62-1.283-6.617-2.282l3.129-6.976c1.868.913 3.694 1.597 5.477 2.053a21.44 21.44 0 0 0 5.346.685c2.65 0 4.662-.577 6.03-1.728 1.37-1.152 2.055-2.836 2.055-5.053v-2.803c-1.348 1-2.815 1.76-4.401 2.282a15.687 15.687 0 0 1-4.923.782m-8.411-17.408c0 2.738.946 5.064 2.837 6.976 1.89 1.913 4.205 2.87 6.944 2.87 1.607 0 3.085-.272 4.433-.816a10.971 10.971 0 0 0 3.52-2.249V24.184c-.956-.956-2.13-1.706-3.52-2.25a11.93 11.93 0 0 0-4.368-.815c-2.74 0-5.064.936-6.977 2.804-1.913 1.87-2.87 4.151-2.87 6.846M301.695 40.745l5.412-6.781c2.65 2.305 5.205 3.989 7.66 5.053 2.456 1.066 5.053 1.598 7.792 1.598 2.825 0 5.086-.522 6.78-1.565 1.696-1.043 2.543-2.433 2.543-4.173 0-1.565-.576-2.781-1.727-3.651-1.152-.87-3.076-1.521-5.771-1.956l-9.062-1.565c-3.912-.652-6.878-2.021-8.9-4.107-2.021-2.087-3.032-4.781-3.032-8.085 0-4.26 1.619-7.628 4.858-10.106 3.237-2.477 7.617-3.716 13.137-3.716 3.303 0 6.639.565 10.009 1.695 3.367 1.13 6.313 2.695 8.834 4.694l-5.086 7.042c-2.434-1.87-4.824-3.25-7.172-4.14a20.228 20.228 0 0 0-7.236-1.337c-2.522 0-4.543.468-6.064 1.402-1.522.935-2.282 2.184-2.282 3.749 0 1.39.499 2.477 1.499 3.26 1 .782 2.674 1.348 5.02 1.695l8.607 1.434c4.52.74 7.922 2.185 10.203 4.336 2.283 2.152 3.424 4.988 3.424 8.509 0 4.433-1.75 7.976-5.25 10.627-3.498 2.652-8.16 3.977-13.984 3.977-3.651 0-7.25-.694-10.791-2.086-3.543-1.391-6.682-3.325-9.421-5.803M376.015 43.744c-2.086 1.695-4.228 2.934-6.422 3.716-2.195.783-4.64 1.174-7.335 1.174-2.565 0-4.966-.457-7.204-1.369-2.24-.913-4.173-2.152-5.803-3.717s-2.912-3.423-3.847-5.575c-.935-2.15-1.402-4.466-1.402-6.943 0-2.434.446-4.727 1.337-6.878.89-2.152 2.119-4.02 3.684-5.608 1.565-1.586 3.423-2.836 5.575-3.749 2.15-.912 4.443-1.369 6.878-1.369 2.39 0 4.618.468 6.683 1.402 2.064.935 3.847 2.207 5.346 3.814 1.5 1.61 2.674 3.532 3.52 5.77.848 2.24 1.272 4.662 1.272 7.27v2.347H353c.608 2.131 1.782 3.847 3.52 5.151 1.739 1.304 3.783 1.956 6.13 1.956 1.477 0 2.868-.239 4.172-.717 1.304-.478 2.413-1.152 3.325-2.022l5.868 5.347Zm-14.735-22.95c-2.043 0-3.804.62-5.281 1.858-1.478 1.238-2.5 2.901-3.064 4.988h16.625c-.565-1.999-1.597-3.64-3.096-4.923-1.5-1.282-3.228-1.924-5.184-1.924ZM382.978 47.982v-33.97h8.933v2.674a14.138 14.138 0 0 1 4.335-2.477c1.586-.564 3.314-.848 5.184-.848 3.911 0 7.128 1.262 9.649 3.782 2.521 2.52 3.781 5.759 3.781 9.714v21.125h-8.932V28.16c0-2.13-.641-3.846-1.923-5.15-1.283-1.304-2.989-1.956-5.118-1.956-1.479 0-2.815.293-4.01.88a7.876 7.876 0 0 0-2.966 2.51v23.537h-8.933ZM418.413 43.94l4.433-5.933c2 1.304 3.89 2.272 5.673 2.9 1.781.632 3.563.947 5.346.947 2 0 3.596-.326 4.792-.978 1.195-.652 1.793-1.521 1.793-2.608 0-.87-.337-1.565-1.01-2.087-.675-.521-1.75-.89-3.228-1.108l-6.52-.978c-3.347-.522-5.9-1.608-7.66-3.26-1.76-1.651-2.64-3.847-2.64-6.585 0-3.26 1.281-5.868 3.846-7.824 2.564-1.956 5.998-2.934 10.301-2.934 2.478 0 4.89.359 7.237 1.076a26.286 26.286 0 0 1 6.716 3.162l-4.304 5.737c-1.869-1.086-3.65-1.901-5.346-2.444a16.795 16.795 0 0 0-5.15-.815c-1.609 0-2.902.304-3.88.912-.978.61-1.467 1.413-1.467 2.413 0 .912.36 1.619 1.076 2.119.717.5 1.901.859 3.553 1.075l6.52.979c3.303.478 5.857 1.564 7.661 3.259 1.803 1.696 2.706 3.847 2.706 6.455a9.049 9.049 0 0 1-1.14 4.466c-.762 1.369-1.794 2.554-3.098 3.554-1.304 1-2.869 1.782-4.694 2.347-1.826.564-3.805.847-5.934.847-3.086 0-5.977-.402-8.67-1.206-2.697-.804-5-1.966-6.912-3.488M483.051 43.744c-2.086 1.695-4.228 2.934-6.422 3.716-2.195.783-4.64 1.174-7.335 1.174-2.565 0-4.966-.457-7.204-1.369-2.24-.913-4.173-2.152-5.803-3.717s-2.913-3.423-3.847-5.575c-.935-2.15-1.402-4.466-1.402-6.943 0-2.434.445-4.727 1.337-6.878.89-2.152 2.12-4.02 3.684-5.608 1.564-1.586 3.423-2.836 5.574-3.749 2.151-.912 4.444-1.369 6.878-1.369 2.391 0 4.62.468 6.684 1.402 2.064.935 3.847 2.207 5.346 3.814 1.5 1.61 2.673 3.532 3.521 5.77.847 2.24 1.271 4.662 1.271 7.27v2.347h-25.298c.61 2.131 1.783 3.847 3.521 5.151 1.74 1.304 3.782 1.956 6.13 1.956 1.476 0 2.868-.239 4.172-.717 1.304-.478 2.413-1.152 3.325-2.022l5.868 5.347Zm-14.735-22.95c-2.043 0-3.804.62-5.28 1.858-1.479 1.238-2.5 2.901-3.066 4.988h16.626c-.565-1.999-1.597-3.64-3.097-4.923-1.499-1.282-3.227-1.924-5.183-1.924Z"/></g><g transform="translate(0 .387)"><mask id="c" fill="#fff"><use xlink:href="#a"/></mask><path d="M0 23.797C0 36.94 10.655 47.595 23.798 47.595a5.288 5.288 0 0 0 0-10.577c-7.303 0-13.222-5.919-13.222-13.221 0-7.302 5.919-13.221 13.222-13.221 7.302 0 13.222 5.919 13.222 13.221h-.001a5.289 5.289 0 0 0 10.577 0C47.596 10.654 36.941 0 23.798 0 10.655 0 0 10.654 0 23.797" fill="url(#b)" mask="url(#c)"/></g><path d="M47.596 42.694a5.289 5.289 0 0 1-5.288 5.288h-.001a5.289 5.289 0 1 1 5.289-5.289Z" fill="#0ECC7E"/></g></svg>