<?xml version="1.0" encoding="UTF-8"?>
<svg width="210px" height="48px" viewBox="0 0 210 48" version="1.1" xmlns="http://www.w3.org/2000/svg" xmlns:xlink="http://www.w3.org/1999/xlink">
    <title>E2606750-D377-4CCF-8D4C-62B75106F691</title>
    <g id="Designs" stroke="none" stroke-width="1" fill="none" fill-rule="evenodd">
        <g id="1.0.Insights" transform="translate(-327.000000, -6573.000000)" fill-rule="nonzero">
            <g id="Group-30" transform="translate(245.000000, 6508.000000)">
                <g id="logo-doppler" transform="translate(82.000000, 65.000000)">
                    <path d="M188.531312,0.0279212428 C176.166583,-0.591073322 165.633666,9.15809107 165.023062,21.692731 C164.717761,28.5790455 167.465478,34.8463655 171.968682,39.1793275 L168.915662,48 L177.845744,43.2801664 C180.44081,44.5181556 183.417504,45.3692731 186.470524,45.4466474 C198.835252,46.065642 209.368169,36.3164776 209.978773,23.7818377 C210.513052,11.324572 200.89604,0.646915807 188.531312,0.0279212428 Z M197.537719,20.8416135 C196.316511,22.8533458 192.805539,22.6212229 192.042284,20.2999932 C192.042284,20.2999932 191.126378,16.8181488 187.462755,16.8181488 C183.875457,16.8181488 182.883226,20.2999932 182.883226,20.2999932 C182.119971,22.6212229 178.608999,22.9307201 177.387791,20.8416135 C176.548211,19.52625 176.929838,18.5203839 177.006164,18.0561379 C177.006164,18.0561379 179.60123,10.3960802 187.462755,10.3960802 C187.462755,10.3960802 187.462755,10.3960802 187.462755,10.3960802 C187.462755,10.3960802 187.462755,10.3960802 187.462755,10.3960802 C195.32428,10.3960802 197.919347,18.0561379 197.919347,18.0561379 C197.995672,18.5203839 198.300974,19.52625 197.537719,20.8416135 Z" id="XMLID_00000026848539373573295390000003551140117520685966_" fill="#FAB221"></path>
                    <g id="XMLID_00000054249686947925169860000009843781603780140468_" transform="translate(0.000000, 23.000000)" fill="#302512">
                        <path d="M3.1614937,24.6212121 C1.38797284,24.6212121 0,23.2575758 0,21.5151515 L0,3.40909091 C0,1.66666667 1.38797284,0.303030303 3.1614937,0.303030303 L9.7929195,0.303030303 C17.3496605,0.303030303 22.9015519,5.37878788 22.9015519,12.3484848 L22.9015519,12.4242424 C22.9015519,19.469697 17.4267701,24.5454545 9.7929195,24.5454545 L3.1614937,24.5454545 L3.1614937,24.6212121 Z M9.71580989,18.9393939 C13.6483996,18.9393939 16.2701261,16.3636364 16.2701261,12.5757576 L16.2701261,12.5 C16.2701261,8.63636364 13.6483996,6.06060606 9.71580989,6.06060606 L6.32298739,6.06060606 L6.32298739,18.9393939 L9.71580989,18.9393939 Z" id="XMLID_00000015320243075144360380000002756639730032085654_"></path>
                        <path d="M37.4752667,25 C30.0727449,25 24.4437439,19.6212121 24.4437439,12.5757576 L24.4437439,12.5 C24.4437439,5.45454545 30.2269641,0 37.5523763,0 C44.9548982,0 50.5838991,5.37878788 50.5838991,12.4242424 L50.5838991,12.5 C50.5838991,19.469697 44.800679,25 37.4752667,25 Z M37.4752667,5.75757576 C33.7740058,5.75757576 30.9209505,8.63636364 30.9209505,12.4242424 L30.9209505,12.5 C30.9209505,16.3636364 33.7740058,19.2424242 37.4752667,19.2424242 C41.1765276,19.2424242 44.0295829,16.3636364 44.0295829,12.5757576 L44.0295829,12.5 C44.0295829,8.63636364 41.2536372,5.75757576 37.4752667,5.75757576 Z" id="XMLID_00000143611951854304309790000014121154981161802935_"></path>
                        <path d="M56.3671193,24.7727273 C54.5935984,24.7727273 53.2056256,23.4090909 53.2056256,21.6666667 L53.2056256,3.40909091 C53.2056256,1.66666667 54.5935984,0.303030303 56.3671193,0.303030303 L63.3840931,0.303030303 C69.1673133,0.303030303 72.9456838,3.63636364 72.9456838,8.86363636 L72.9456838,8.93939394 C72.9456838,14.2424242 69.0130941,17.6515152 62.8443259,17.6515152 L59.4515034,17.6515152 L59.4515034,21.7424242 C59.528613,23.4090909 58.1406402,24.7727273 56.3671193,24.7727273 Z M63.0756547,12.0454545 C65.2347236,12.0454545 66.6226964,10.9090909 66.6226964,9.09090909 L66.6226964,9.01515152 C66.6226964,6.43939394 64.3094083,6.06060606 62.9985451,6.06060606 L59.528613,6.06060606 L59.528613,12.0454545 L63.0756547,12.0454545 Z" id="XMLID_00000183227220024922618990000018217859921513379743_"></path>
                        <path d="M78.0349176,24.7727273 C76.2613967,24.7727273 74.8734239,23.4090909 74.8734239,21.6666667 L74.8734239,3.40909091 C74.8734239,1.66666667 76.2613967,0.303030303 78.0349176,0.303030303 L85.0518914,0.303030303 C90.8351115,0.303030303 94.6134821,3.63636364 94.6134821,8.86363636 L94.6134821,8.93939394 C94.6134821,14.2424242 90.6808923,17.6515152 84.5121242,17.6515152 L81.1193016,17.6515152 L81.1193016,21.7424242 C81.1964113,23.4090909 79.8084384,24.7727273 78.0349176,24.7727273 Z M84.743453,12.0454545 C86.9025218,12.0454545 88.2904947,10.9090909 88.2904947,9.09090909 L88.2904947,9.01515152 C88.2904947,6.43939394 85.9772066,6.06060606 84.6663434,6.06060606 L81.1964113,6.06060606 L81.1964113,12.0454545 L84.743453,12.0454545 Z" id="XMLID_00000043437784532450759860000007853928807515419541_"></path>
                        <path d="M99.7027158,24.6212121 C97.929195,24.6212121 96.5412221,23.2575758 96.5412221,21.5151515 L96.5412221,3.25757576 C96.5412221,1.51515152 97.929195,0.151515152 99.7027158,0.151515152 C101.476237,0.151515152 102.86421,1.51515152 102.86421,3.25757576 L102.86421,18.8636364 L111.886033,18.8636364 C113.505335,18.8636364 114.816198,20.1515152 114.816198,21.7424242 C114.816198,23.3333333 113.505335,24.6212121 111.886033,24.6212121 L99.7027158,24.6212121 Z" id="XMLID_00000030460977896888695790000005494399433838367928_"></path>
                        <path d="M119.674103,24.6212121 C117.900582,24.6212121 116.512609,23.2575758 116.512609,21.5151515 L116.512609,3.40909091 C116.512609,1.66666667 117.900582,0.303030303 119.674103,0.303030303 L132.705626,0.303030303 C134.324927,0.303030303 135.558681,1.59090909 135.558681,3.10606061 C135.558681,4.62121212 134.247818,5.90909091 132.705626,5.90909091 L122.758487,5.90909091 L122.758487,9.54545455 L131.163434,9.54545455 C132.782735,9.54545455 134.016489,10.8333333 134.016489,12.3484848 C134.016489,13.8636364 132.705626,15.1515152 131.163434,15.1515152 L122.758487,15.1515152 L122.758487,18.9393939 L132.859845,18.9393939 C134.479146,18.9393939 135.7129,20.2272727 135.7129,21.7424242 C135.7129,23.2575758 134.402037,24.5454545 132.859845,24.5454545 L119.674103,24.5454545 L119.674103,24.6212121 Z" id="XMLID_00000011727074633723334970000012866432209448890011_"></path>
                        <path d="M155.684287,24.7727273 C154.527643,24.7727273 153.525218,24.2424242 152.677013,23.2575758 L147.819108,17.1969697 L144.503395,17.1969697 L144.503395,21.7424242 C144.503395,23.4848485 143.115422,24.8484848 141.341901,24.8484848 C139.56838,24.8484848 138.180407,23.4848485 138.180407,21.7424242 L138.180407,3.40909091 C138.180407,1.66666667 139.56838,0.303030303 141.341901,0.303030303 L149.592629,0.303030303 C152.677013,0.303030303 155.14452,1.13636364 156.840931,2.8030303 C158.306014,4.16666667 159,6.13636364 159,8.48484848 L159,8.56060606 C159,11.8939394 157.457808,14.3939394 154.604753,15.8333333 L157.766246,19.6212121 C158.306014,20.2272727 158.768671,20.9090909 158.768671,21.8939394 C158.691562,23.7121212 157.226479,24.7727273 155.684287,24.7727273 Z M149.207081,11.5909091 C151.366149,11.5909091 152.599903,10.6060606 152.599903,8.86363636 L152.599903,8.78787879 C152.599903,6.51515152 150.672163,5.98484848 149.052861,5.98484848 L144.426285,5.98484848 L144.426285,11.5151515 L149.207081,11.5151515 L149.207081,11.5909091 Z" id="XMLID_00000026854818346723528150000003424564536666015893_"></path>
                    </g>
                </g>
            </g>
        </g>
    </g>
</svg>