<svg width="126" height="43" xmlns="http://www.w3.org/2000/svg"><g fill-rule="nonzero" fill="none"><path d="M112.389 22.462v16.62c0 2.044 1.297 3.383 3.084 3.383 1.788 0 3.085-1.363 3.085-3.383v-9.369c0-2.409 1.885-3.212 3.745-4.064 1.836-.851 3.697-.973 3.697-2.968 0-2.215-1.493-3.261-3.011-3.261-1.934 0-3.183.851-4.333 2.555h-.074c-.832-1.971-1.787-2.555-3.01-2.555-1.543 0-3.183 1.022-3.183 3.042Zm-17.43 10.512h13.195c1.885 0 2.717-.9 2.717-2.725 0-5.086-4.43-11.121-11.138-11.121s-11.09 5.645-11.09 11.826c0 6.741 4.651 11.754 11.604 11.754 4.602 0 9.474-2.555 9.474-5.183 0-1.314-1.2-2.628-2.546-2.628-1.64 0-3.207 2.457-6.39 2.457-2.888 0-5.41-1.411-5.85-4.404l.024.024Zm9.719-4.064h-9.841c.293-2.58 2.154-4.672 4.896-4.672 2.741 0 4.602 1.995 4.945 4.672Zm-65.51-6.521c0-1.655-1.37-3.018-3.06-3.018a3.076 3.076 0 0 0-3.035 2.628c-1.396-1.776-3.525-2.628-5.729-2.628-5.679 0-10.232 5.135-10.232 11.827s4.43 11.753 10.232 11.753c2.302 0 4.187-1.168 5.753-2.944.245 1.411 1.42 2.482 3.011 2.482.27 0 .514-.024.76-.073 1.223-.17 1.81-.876 2.08-1.703a3.27 3.27 0 0 0 .245-1.217V22.365l-.025.024ZM28.201 36.697c-3.354 0-4.896-2.555-4.896-5.475 0-2.92 1.494-6.108 4.896-6.108 3.403 0 4.774 3.188 4.774 6.108 0 2.92-1.542 5.475-4.774 5.475Zm26.243-17.302c-2.84 0-5.606.803-6.805 2.36-.294-1.362-1.518-2.36-2.987-2.36-1.69 0-3.06 1.339-3.06 3.018v16.669c0 2.044 1.297 3.383 3.085 3.383 1.787 0 3.084-1.363 3.084-3.383v-9.758c0-2.385 2.08-4.21 4.602-4.21 2.228 0 4.333 1.363 4.333 4.21v9.758c0 2.044 1.298 3.383 3.085 3.383s3.084-1.363 3.084-3.383V27.62c0-5.183-3.598-8.225-8.47-8.225h.05Zm32.583-3.869c0-2.044-1.297-3.382-3.084-3.382-1.787 0-3.085 1.362-3.085 3.382v6.01c-1.64-1.41-3.745-2.116-5.875-2.116-6.659 0-9.963 6.156-9.963 12.094S68.96 43 75.203 43c2.106 0 4.505-1.436 5.68-3.285.049.219.122.414.196.584.342 1.265 1.469 2.214 2.937 2.214 1.812 0 3.06-1.29 3.06-3.017V15.477l-.049.05Zm-11.04 21.196c-3.232 0-4.823-2.628-4.823-5.476 0-2.847 1.591-6.108 4.823-6.108 3.231 0 4.847 2.92 4.847 5.89 0 2.968-1.469 5.694-4.847 5.694ZM0 15.404v23.654c0 2.117 1.248 3.48 3.354 3.48H14.1c1.885 0 3.084-1.533 3.084-3.115 0-1.436-.906-3.042-3.084-3.042H6.438V15.404c0-2.117-1.37-3.309-3.231-3.309-1.86 0-3.207 1.192-3.207 3.31Z" fill="#001F35"/><path d="m54.787 8.712 3.207 3.164c1.2 1.192 3.182 1.168 4.382 0a2.949 2.949 0 0 0-.05-4.259L56.795 2.02c-2.79-2.774-5.704-2.628-8.421.05l-5.484 5.523c-1.224 1.168-1.273 3.066-.049 4.259 1.2 1.192 3.183 1.192 4.382 0l3.207-3.164c1.2-1.192 3.183-1.192 4.382 0l-.024.024Z" fill="#0096D4"/></g></svg>