<svg width="19" height="19" xmlns="http://www.w3.org/2000/svg"><path d="M9.501 9.644c0 1.002.812 1.814 1.814 1.814h3.359c-.577 1.873-1.996 3.294-4.047 3.673-3.26.603-6.52-1.772-6.83-5.072a5.732 5.732 0 0 1 8.342-5.644 1.86 1.86 0 0 0 2.172-.35 1.893 1.893 0 0 0-.473-3.02A9.505 9.505 0 0 0 8.43.059C4.077.536.536 4.074.06 8.427a9.502 9.502 0 0 0 9.442 10.574c6.05 0 8.523-4.29 9.024-7.978.23-1.691-1.123-3.185-2.829-3.186l-4.38-.006a1.813 1.813 0 0 0-1.815 1.813Z" fill="#000" fill-rule="nonzero"/></svg>