<svg width="18" height="20" xmlns="http://www.w3.org/2000/svg"><path d="M12.807.004a.438.438 0 0 0-.205.022c-1 .2-2.1.8-2.8 1.5-.6.6-1.099 1.6-1.099 2.5 0 .2.199.4.399.4 1.1-.1 2.2-.7 2.9-1.4.6-.8 1.1-1.7 1.1-2.6 0-.225-.113-.394-.295-.422Zm.295 4.322c-1.8 0-2.6 1.1-3.8 1.1-1.3 0-2.5-1-4-1-2.1 0-5.3 2-5.3 6.6-.1 4.2 3.7 8.9 5.9 8.9 1.3 0 1.6-.8 3.4-.8 1.8 0 2.2.8 3.5.8 1.5 0 2.6-1.6 3.5-2.9.4-.7.7-1.1 1-1.7.2-.4 0-.8-.4-1-2.6-1.3-3.099-5.5-.199-7 .5-.3.6-.9.2-1.2-1.1-1-2.701-1.8-3.801-1.8Z" fill="#000" fill-rule="nonzero"/></svg>