<svg width="251" height="28" xmlns="http://www.w3.org/2000/svg"><g fill="#383838" fill-rule="nonzero"><path d="M232.406 28V15.023h16.188V28H251V1h-2.406v12.14h-16.188V1H230v27zM216.608 28c3.031 0 5.413-.855 7.145-2.351 1.732-1.496 2.814-3.847 3.247-6.626h-2.381c-.217 2.351-1.083 4.061-2.382 5.343-1.299 1.283-3.03 1.71-5.629 1.71-2.598 0-4.546-.855-6.062-2.778-1.515-1.924-2.165-4.489-2.165-7.695v-3.206c0-3.206.65-5.985 2.165-7.695 1.516-1.71 3.464-2.778 6.062-2.778 4.547 0 7.145 2.35 7.794 7.053h2.382c-.217-2.779-1.3-4.916-3.031-6.626C222.02.641 219.639 0 216.608 0c-2.165 0-3.897.427-5.629 1.496-1.732 1.069-2.814 2.565-3.68 4.275-.866 1.924-1.299 4.061-1.299 6.412v3.634c0 2.35.433 4.488 1.299 6.412.866 1.924 2.165 3.42 3.68 4.275 1.732 1.069 3.464 1.496 5.63 1.496ZM203 28v-2.093h-14.662V15.023h12.75V13.14h-12.75V2.884h14.45V1H186v27zM173.667 28V2.884H183V1h-21v1.884h9.333V28zM133.406 28V4.767L149.594 28H152V1h-2.406v23.023L133.406 1H131v27zM125.257 5.727c-.87-1.909-2.178-3.182-3.92-4.242C119.812.425 118.069 0 115.89 0s-4.139.424-5.663 1.485c-1.743 1.06-2.832 2.545-3.921 4.454-.871 1.91-1.307 4.243-1.307 6.576v2.758c0 3.818 1.09 7 3.05 9.333 1.96 2.333 4.574 3.394 8.059 3.394 2.178 0 4.139-.424 5.663-1.485 1.743-1.06 2.832-2.545 3.921-4.454.871-1.91 1.307-4.03 1.307-6.576v-3.182c-.218-2.545-.653-4.667-1.743-6.576Zm-.87 9.758c0 3.394-.872 5.94-2.18 7.848-1.306 1.91-3.484 2.758-6.316 2.758-2.614 0-4.792-1.06-6.317-2.758-1.524-1.909-2.396-4.454-2.396-7.636v-2.97c0-3.394.872-5.94 2.396-7.848 1.525-1.91 3.703-2.758 6.317-2.758 2.614 0 4.792.849 6.317 2.758 1.525 1.909 2.396 4.454 2.396 7.848v2.758h-.218ZM98 1h2v27h-2zM94 28v-2.093H80.347V1H78v27zM74 28v-2.093H60.347V1H58v27zM44.565 1h-2.13L32 28h2.556l2.768-7.535H49.89L52.657 28H55L44.565 1Zm-6.602 17.372L43.5 3.721l5.537 14.651H37.963ZM27 1h2v27h-2zM12.802 28 23 1h-2.387l-8.896 23.651-.217.419-.217-.419L2.604 1H0l10.415 27h2.17z"/></g></svg>