<svg width="96" height="96" fill="none" xmlns="http://www.w3.org/2000/svg"><g clip-path="url(#a)" fill="#000"><rect x="-2" width="40" height="4" rx="2"/><path d="M42 2a2 2 0 1 1 4 0 2 2 0 0 1-4 0Z"/><rect x="50" width="48" height="4" rx="2"/><rect x="-2" y="16" width="36" height="4" rx="2"/><rect x="38" y="16" width="60" height="4" rx="2"/><rect x="17" y="32" width="4" height="4" rx="2"/><rect x="-2" y="32" width="15" height="4" rx="2"/><rect x="25" y="32" width="73" height="4" rx="2"/><rect x="46" y="48" width="4" height="4" rx="2"/><rect x="-2" y="48" width="44" height="4" rx="2"/><rect x="54" y="48" width="44" height="4" rx="2"/><rect x="-2" y="64" width="70" height="4" rx="2"/><rect x="72" y="64" width="4" height="4" rx="2"/><rect x="80" y="64" width="18" height="4" rx="2"/><rect x="-2" y="80" width="20" height="4" rx="2"/><path d="M22 82a2 2 0 1 1 4 0 2 2 0 0 1-4 0Z"/><rect x="30" y="80" width="68" height="4" rx="2"/></g><defs><clipPath id="a"><path fill="#fff" d="M0 0h96v96H0z"/></clipPath></defs></svg>