<svg width="31" height="31" xmlns="http://www.w3.org/2000/svg"><defs><linearGradient x1="24.128%" y1="18.908%" x2="59.961%" y2="57.728%" id="a"><stop stop-color="#1EDD8E" offset="0%"/><stop stop-color="#53C0D2" offset="100%"/></linearGradient><linearGradient x1="24.128%" y1="27.157%" x2="59.961%" y2="55.678%" id="b"><stop stop-color="#1EDD8E" offset="0%"/><stop stop-color="#53C0D2" offset="100%"/></linearGradient></defs><g fill="none" fill-rule="evenodd"><path d="M0 0h31v31H0z"/><circle stroke="url(#a)" stroke-width="1.4" cx="15.5" cy="15.5" r="14.8"/><path d="M21.507 11.869a3.178 3.178 0 0 0 1.334-1.77 5.887 5.887 0 0 1-1.928.776 2.955 2.955 0 0 0-2.215-1.011c-1.676 0-3.035 1.433-3.035 3.2 0 .252.026.496.078.73-2.522-.134-4.758-1.407-6.256-3.345a3.328 3.328 0 0 0-.411 1.61c0 1.11.536 2.09 1.35 2.665a2.927 2.927 0 0 1-1.375-.4v.04c0 1.551 1.045 2.845 2.436 3.138a2.826 2.826 0 0 1-.801.113c-.196 0-.387-.02-.57-.057.385 1.272 1.506 2.198 2.835 2.223a5.893 5.893 0 0 1-4.494 1.326 8.277 8.277 0 0 0 4.653 1.438c5.584 0 8.635-4.878 8.635-9.108 0-.14-.001-.278-.008-.414a6.345 6.345 0 0 0 1.515-1.658 5.818 5.818 0 0 1-1.743.504Z" fill="url(#b)"/></g></svg>