<?xml version="1.0" encoding="UTF-8"?>
<svg width="51px" height="26px" viewBox="0 0 51 26" version="1.1" xmlns="http://www.w3.org/2000/svg" xmlns:xlink="http://www.w3.org/1999/xlink">
    <title>C90C2C90-13C5-4D70-B6D3-859CE83D78C9</title>
    <defs>
        <linearGradient x1="49.9949664%" y1="100.053041%" x2="49.9949664%" y2="-0.00386742279%" id="linearGradient-1">
            <stop stop-color="#00CB78" offset="22%"></stop>
            <stop stop-color="#00C3D0" offset="83%"></stop>
        </linearGradient>
    </defs>
    <g id="Designs" stroke="none" stroke-width="1" fill="none" fill-rule="evenodd">
        <g id="1.0.WhatWeDo.Landing" transform="translate(-1275.000000, -2005.000000)" fill-rule="nonzero">
            <g id="Group-22-Copy" transform="translate(1243.000000, 1905.000000)">
                <g id="ic-ux" transform="translate(32.000000, 100.000000)">
                    <path d="M50.655694,0.44756722 C50.1827445,-0.0116320701 49.4165657,-0.0116320701 48.9436163,0.44756722 L37.6858981,11.3876735 L26.4281799,0.44756722 C26.0817477,0.111206561 25.56109,0.0106566716 25.1087115,0.192750316 C24.6563331,0.374843961 24.361196,0.803771658 24.3607654,1.27975328 L24.3607654,13.0559711 C24.3607654,18.909414 19.479603,23.6545671 13.4583841,23.6545671 C7.43716511,23.6545671 2.55600273,18.909414 2.55600273,13.0559711 L2.55600273,5.97061336 C2.55600273,5.32023081 2.01365136,4.79299159 1.34462703,4.79299159 L1.34462703,4.79299159 C0.675602703,4.79299159 0.133251327,5.32023081 0.133251327,5.97061336 L0.133251327,13.0559711 C0.138827056,20.2101788 6.10921163,26.0054161 13.4684788,26 C20.8277461,25.9945763 26.7890915,20.1905517 26.7835168,13.036344 L26.7835168,4.10212014 L35.9738204,13.036344 L24.7080264,23.9843012 C24.2352492,24.4449888 24.2361531,25.1910323 24.7100454,25.650636 C25.1839376,26.1102397 25.9513648,26.1093609 26.424142,25.6486733 L37.6858981,14.7007162 L48.9436163,25.6447479 C49.4209141,26.077106 50.1646987,26.0643485 50.6260101,25.6158911 C51.0873215,25.1674338 51.1004447,24.4443741 50.655694,23.9803758 L39.3979758,13.036344 L50.655694,2.0923123 C51.1147687,1.63488434 51.1147687,0.904995187 50.655694,0.44756722 L50.655694,0.44756722 Z" id="Path" fill="url(#linearGradient-1)"></path>
                    <path d="M0.605687851,2.3553145 C0.677993732,2.4022316 0.755130482,2.44169865 0.835849235,2.47307668 C0.914614272,2.50736163 0.997301698,2.53239909 1.08216229,2.54765939 C1.16860878,2.5645598 1.25646121,2.57375721 1.34462703,2.57513723 C1.43145765,2.57376061 1.51797005,2.56456197 1.60305385,2.54765939 C1.68922008,2.53241271 1.77324602,2.50738032 1.85340482,2.47307668 C1.93412358,2.44169865 2.01126033,2.4022316 2.08356621,2.3553145 C2.41567139,2.1398602 2.63089441,1.79098893 2.67000331,1.40471429 C2.7091122,1.01843965 2.5679852,0.635471854 2.28546216,0.361208289 C1.75606528,-0.120402763 0.93318878,-0.120402763 0.403791901,0.361208289 C0.149041326,0.603101063 0.00375941218,0.933588062 0,1.27975328 C0.00154019068,1.71192882 0.224024947,2.11507306 0.593574094,2.3553145 L0.605687851,2.3553145 Z" id="Path" fill="#00CB78"></path>
                </g>
            </g>
        </g>
    </g>
</svg>